<?xml version="1.0" standalone="no"?>
<!DOCTYPE svg PUBLIC "-//W3C//DTD SVG 20010904//EN"
 "http://www.w3.org/TR/2001/REC-SVG-20010904/DTD/svg10.dtd">
<svg version="1.0" xmlns="http://www.w3.org/2000/svg"
 width="1280.000000pt" height="1280.000000pt" viewBox="0 0 1280.000000 1280.000000"
 preserveAspectRatio="xMidYMid meet">

<g transform="translate(0.000000,1280.000000) scale(0.100000,-0.100000)"
fill="#000000" stroke="none">
<path d="M5980 9659 c-92 -7 -141 -16 -200 -37 -8 -2 -24 -6 -35 -8 -95 -13
-280 -70 -410 -124 -11 -5 -45 -19 -75 -31 -144 -59 -456 -239 -468 -270 -2
-5 -10 -9 -17 -9 -7 0 -15 -8 -17 -17 -2 -10 -12 -18 -23 -18 -11 0 -19 -6
-17 -13 1 -8 -1 -11 -6 -8 -5 3 -25 -7 -45 -22 -60 -45 -192 -165 -212 -192
l-19 -25 22 19 c12 11 22 15 22 11 0 -4 9 3 21 16 11 13 28 23 37 21 13 -2 14
-1 4 6 -10 7 0 13 33 21 32 8 49 18 55 34 l9 22 0 -22 c1 -25 8 -28 31 -13 9
6 17 5 22 -3 6 -9 8 -9 8 1 0 6 7 12 15 12 8 0 14 5 12 12 -1 6 7 14 18 16 11
2 27 13 37 24 9 11 19 19 22 18 23 -4 76 15 76 27 0 11 11 13 50 10 28 -3 50
-1 50 5 0 18 73 40 118 35 36 -4 48 0 73 20 28 24 29 24 29 4 0 -14 6 -21 20
-21 13 0 20 7 20 20 0 11 5 20 10 20 6 0 10 -9 10 -19 0 -13 8 -21 23 -23 14
-2 22 -10 22 -23 0 -13 -6 -19 -15 -17 -8 2 -12 1 -8 -3 7 -7 -77 -117 -93
-123 -5 -2 -9 -10 -9 -18 0 -8 -7 -17 -15 -20 -8 -4 -15 -10 -15 -16 0 -18
-52 -78 -63 -71 -6 4 -7 1 -3 -6 5 -7 -12 -41 -41 -84 -250 -366 -454 -867
-558 -1372 -18 -88 -36 -153 -38 -145 -3 8 -8 22 -10 30 -3 8 -6 -2 -6 -23 -1
-23 3 -36 9 -32 6 3 10 -1 10 -10 0 -9 -4 -13 -10 -10 -5 3 -10 1 -10 -5 0 -6
-6 -8 -12 -4 -10 6 -10 4 0 -7 6 -7 12 -22 11 -33 0 -21 0 -21 -9 -1 -8 18 -9
18 -10 -5 l-1 -25 -11 25 c-6 14 -10 28 -10 33 1 4 -1 7 -5 8 -5 0 -16 2 -26
4 -9 2 -15 0 -13 -3 2 -4 -2 -16 -10 -26 -14 -20 -13 -22 -29 29 -2 8 -22 25
-44 39 -45 29 -52 38 -60 80 -5 22 -13 32 -29 34 -14 2 -22 10 -22 23 0 10 -6
19 -13 19 -11 0 -67 42 -137 103 -9 7 -37 23 -62 34 -28 14 -54 36 -68 58 -12
19 -26 32 -32 29 -5 -3 -19 4 -30 16 -19 21 -22 21 -31 5 -8 -14 -11 -15 -18
-4 -7 11 -9 10 -9 -4 0 -10 -4 -15 -10 -12 -5 3 -10 17 -10 31 0 14 -4 22 -10
19 -5 -3 -10 -1 -10 5 0 7 6 10 14 7 8 -3 17 1 20 9 3 8 1 14 -4 14 -6 0 -10
10 -10 23 -1 26 -46 -100 -56 -158 -9 -46 -9 -45 -17 -65 -7 -18 -45 -198 -47
-220 0 -8 -4 -77 -8 -153 l-7 -137 585 2 584 3 32 190 c63 385 140 618 306
935 146 279 331 513 553 700 133 112 278 194 445 252 92 31 101 33 255 33 186
0 208 -7 311 -93 154 -129 217 -328 194 -610 -18 -205 -19 -211 -55 -359 -64
-255 -106 -368 -227 -608 -80 -159 -192 -349 -231 -392 l-20 -23 320 0 c177 0
328 3 337 6 32 12 166 319 246 564 100 305 148 557 158 830 6 179 15 187 23
20 l2 -55 7 45 7 45 1 -38 c1 -23 10 -47 22 -60 12 -12 23 -32 26 -44 4 -16
14 -23 29 -23 18 0 26 -8 35 -35 6 -19 17 -35 23 -35 8 0 7 -3 -1 -9 -11 -7
-11 -9 1 -14 7 -3 20 -1 28 4 10 6 16 2 21 -14 l6 -22 1 23 c1 21 21 33 21 11
0 -5 4 -7 10 -4 6 4 8 -7 5 -27 -4 -26 -2 -24 10 12 8 25 19 101 24 170 27
359 -63 659 -262 876 -173 187 -442 322 -745 375 -65 11 -207 24 -317 29 -224
11 -238 11 -385 -1z m-190 -53 c0 -2 -8 -10 -17 -17 -16 -13 -17 -12 -4 4 13
16 21 21 21 13z m-290 -260 c0 -2 -8 -10 -17 -17 -16 -13 -17 -12 -4 4 13 16
21 21 21 13z m-89 -94 c-5 -9 -19 -26 -32 -37 -25 -22 -17 -4 15 32 23 27 30
29 17 5z m-63 -61 c1 0 -2 -10 -8 -21 -12 -22 -36 -17 -43 9 -3 13 2 17 22 15
14 -1 27 -2 29 -3z m-558 -51 c0 -5 -5 -10 -11 -10 -5 0 -7 5 -4 10 3 6 8 10
11 10 2 0 4 -4 4 -10z m-86 -89 c4 -5 -3 -7 -13 -4 -11 3 -22 11 -25 19 -4 11
-2 12 14 4 10 -5 21 -14 24 -19z m2676 -295 c0 -26 -6 -18 -14 19 -5 22 -4 26
4 15 5 -8 10 -24 10 -34z m-2943 -1648 c-3 -7 -5 -2 -5 12 0 14 2 19 5 13 2
-7 2 -19 0 -25z"/>
<path d="M5237 9128 c-3 -12 -2 -29 4 -37 8 -13 9 -11 4 7 -4 13 -2 22 4 22 6
0 11 7 11 15 0 23 -17 18 -23 -7z"/>
<path d="M4595 8971 c-16 -3 -25 -9 -20 -13 6 -3 24 0 40 7 33 15 27 16 -20 6z"/>
<path d="M4420 8879 c0 -6 -10 -20 -22 -30 l-23 -20 28 17 c23 14 38 44 22 44
-3 0 -5 -5 -5 -11z"/>
<path d="M6793 8785 c-3 -9 -3 -18 -1 -21 3 -3 8 4 11 16 6 23 -1 27 -10 5z"/>
<path d="M4301 8746 l-24 -31 28 27 c16 15 27 29 24 31 -2 3 -15 -10 -28 -27z"/>
<path d="M6751 8254 c0 -11 3 -14 6 -6 3 7 2 16 -1 19 -3 4 -6 -2 -5 -13z"/>
<path d="M7631 8194 c0 -11 3 -14 6 -6 3 7 2 16 -1 19 -3 4 -6 -2 -5 -13z"/>
<path d="M3751 7824 c0 -11 3 -14 6 -6 3 7 2 16 -1 19 -3 4 -6 -2 -5 -13z"/>
<path d="M3736 7758 c3 -5 10 -6 15 -3 13 9 11 12 -6 12 -8 0 -12 -4 -9 -9z"/>
<path d="M3757 7711 c3 -10 0 -22 -6 -25 -6 -4 -11 -12 -11 -17 0 -6 7 -4 15
5 17 16 20 42 6 50 -5 4 -7 -2 -4 -13z"/>
<path d="M3481 7424 c0 -11 3 -14 6 -6 3 7 2 16 -1 19 -3 4 -6 -2 -5 -13z"/>
<path d="M7466 7135 c-3 -8 -1 -15 4 -15 6 0 10 7 10 15 0 8 -2 15 -4 15 -2 0
-6 -7 -10 -15z"/>
<path d="M7450 7099 c0 -5 5 -7 10 -4 6 3 10 8 10 11 0 2 -4 4 -10 4 -5 0 -10
-5 -10 -11z"/>
<path d="M7421 7047 c-13 -21 -12 -21 5 -5 10 10 16 20 13 22 -3 3 -11 -5 -18
-17z"/>
<path d="M7375 6970 c-3 -5 -1 -10 4 -10 6 0 11 5 11 10 0 6 -2 10 -4 10 -3 0
-8 -4 -11 -10z"/>
<path d="M7406 6968 c-6 -4 50 -7 124 -6 136 2 126 5 -29 10 -45 2 -88 0 -95
-4z"/>
<path d="M5930 6960 c0 -5 5 -10 11 -10 5 0 7 5 4 10 -3 6 -8 10 -11 10 -2 0
-4 -4 -4 -10z"/>
<path d="M8128 6963 c29 -2 74 -2 100 0 26 2 2 3 -53 3 -55 0 -76 -1 -47 -3z"/>
<path d="M8378 6963 c34 -2 90 -2 125 0 34 2 6 3 -63 3 -69 0 -97 -1 -62 -3z"/>
<path d="M8658 6963 c12 -2 32 -2 45 0 12 2 2 4 -23 4 -25 0 -35 -2 -22 -4z"/>
<path d="M8823 6963 c43 -2 110 -2 150 0 40 1 5 3 -78 3 -82 0 -115 -2 -72 -3z"/>
<path d="M5543 6953 c15 -2 37 -2 50 0 12 2 0 4 -28 4 -27 0 -38 -2 -22 -4z"/>
<path d="M5673 6953 c31 -2 83 -2 115 0 31 2 5 3 -58 3 -63 0 -89 -1 -57 -3z"/>
<path d="M3413 6943 c9 -2 23 -2 30 0 6 3 -1 5 -18 5 -16 0 -22 -2 -12 -5z"/>
<path d="M2926 6803 c-6 -14 -5 -15 5 -6 7 7 10 15 7 18 -3 3 -9 -2 -12 -12z"/>
<path d="M7885 6810 c-214 -3 -358 -7 -320 -9 52 -3 62 -5 39 -10 -27 -5 -30
-8 -18 -19 8 -7 14 -9 14 -3 0 5 11 4 24 -2 16 -8 24 -19 23 -32 -1 -14 3 -19
16 -17 9 2 17 -1 17 -6 0 -5 11 -14 25 -20 14 -6 25 -18 25 -26 0 -23 33 -36
92 -37 57 -1 160 -16 118 -17 -14 -1 -83 3 -155 8 -151 11 -716 35 -1150 50
-656 21 -979 29 -2495 60 -261 5 -594 12 -739 16 -244 6 -263 5 -258 -11 16
-39 190 -249 291 -350 184 -183 353 -297 573 -384 110 -45 137 -49 180 -26 15
8 100 37 188 65 314 100 625 212 900 324 114 47 163 72 280 140 39 23 82 41
97 41 14 1 25 -2 23 -5 -4 -6 6 -30 68 -158 23 -48 36 -87 31 -92 -5 -4 -31
-16 -59 -25 -27 -9 -54 -20 -60 -25 -5 -5 -35 -18 -65 -30 -30 -11 -79 -32
-108 -45 -29 -14 -55 -25 -58 -25 -11 0 -105 -70 -95 -71 6 -1 16 -3 21 -4 6
-1 25 -3 43 -4 27 -2 29 -4 12 -11 -11 -5 -14 -9 -7 -9 6 -1 12 -5 12 -11 0
-13 -36 -13 -60 0 -15 8 -21 6 -30 -10 -9 -16 -8 -22 4 -26 8 -3 21 -2 28 2 7
4 19 9 28 10 84 9 479 182 581 255 15 10 30 19 33 19 3 0 43 25 87 56 44 30
88 58 97 61 30 11 44 26 32 33 -8 5 -6 9 5 13 11 5 14 3 9 -5 -5 -8 -2 -9 9
-5 9 3 19 2 22 -2 5 -8 -7 -54 -25 -96 -5 -11 -21 -56 -35 -100 -14 -44 -31
-88 -36 -99 -6 -10 -8 -34 -5 -55 6 -37 -6 -72 -21 -58 -4 5 -1 12 6 16 7 5
11 15 9 22 -4 9 -9 6 -16 -11 -102 -238 -99 -230 -83 -230 5 0 12 8 14 18 3 9
3 -4 2 -30 -2 -26 0 -50 4 -52 4 -3 8 14 10 37 1 23 7 44 12 48 5 3 8 19 5 34
-3 16 -1 34 5 41 6 7 8 17 5 23 -3 5 0 23 8 41 l13 32 7 -33 c7 -30 9 -32 16
-14 5 11 9 14 9 8 2 -29 21 -11 21 20 1 33 22 72 33 60 4 -3 7 -17 7 -30 0
-23 11 -28 53 -24 9 1 17 -1 17 -5 0 -16 -36 -104 -42 -104 -11 0 -10 18 2 25
6 3 10 14 10 23 -1 16 -1 16 -11 0 -13 -24 -29 -23 -29 2 0 11 -6 20 -14 20
-8 0 -18 -9 -21 -20 -7 -22 -25 -27 -25 -7 0 8 -3 7 -9 -2 -8 -12 -11 -9 -17
12 -3 16 -8 26 -11 24 -7 -8 29 -107 38 -107 5 0 7 11 3 25 -5 20 -2 25 21 31
19 5 30 2 40 -12 19 -25 19 -50 -1 -58 -10 -4 -13 -13 -9 -25 3 -11 -1 -25
-10 -34 -8 -9 -14 -20 -13 -24 4 -13 -24 -73 -34 -73 -5 0 -8 -6 -7 -12 4 -20
-42 -118 -52 -112 -5 3 -6 -1 -3 -9 3 -8 -6 -38 -20 -66 -15 -28 -24 -51 -21
-51 4 0 -2 -13 -11 -29 -10 -17 -22 -27 -27 -24 -6 3 -7 1 -3 -6 7 -11 -137
-317 -175 -372 -10 -14 -21 -37 -24 -52 -4 -15 -11 -27 -16 -27 -5 0 -9 -5 -9
-12 0 -13 -183 -339 -210 -375 -10 -12 -21 -19 -25 -15 -5 4 -5 1 -1 -6 9 -15
-50 -108 -250 -396 -190 -273 -503 -608 -719 -771 -135 -101 -293 -199 -405
-252 -41 -19 -93 -43 -115 -53 -61 -29 -212 -89 -290 -116 -124 -43 -501 -133
-560 -134 -11 0 -38 -2 -60 -5 -25 -3 -13 2 30 14 55 15 63 19 37 20 -41 1
-33 21 9 21 18 0 28 4 24 10 -3 6 1 10 11 10 22 0 61 43 56 60 -3 9 1 11 14 6
15 -6 17 -5 7 5 -20 20 -15 27 13 21 16 -3 33 2 47 16 12 11 40 25 61 32 35
11 38 14 22 25 -15 12 -15 13 8 11 13 0 22 -4 20 -8 -6 -9 19 0 56 19 14 7 28
13 33 13 4 0 30 16 57 35 28 19 50 31 50 25 0 -5 5 -10 10 -10 6 0 10 10 10
23 1 20 2 21 14 5 12 -17 14 -17 36 2 13 11 34 20 48 20 14 0 33 6 41 14 9 8
52 26 97 40 44 15 89 33 100 41 10 8 24 15 30 15 15 0 103 59 132 88 12 12 29
22 37 22 7 0 18 6 22 14 4 8 13 16 18 18 6 2 9 8 9 14 -1 6 6 9 16 7 20 -5
116 50 113 66 -2 6 7 11 20 11 12 0 41 18 65 40 24 22 47 40 53 40 5 0 35 25
66 55 32 32 62 54 70 51 14 -6 53 27 53 44 0 6 9 10 19 10 10 0 33 17 51 38
17 20 29 31 25 25 -7 -15 4 -17 24 -4 9 6 10 11 2 15 -16 10 -14 36 3 36 8 0
27 15 44 34 22 25 33 31 41 23 8 -8 11 -7 11 4 0 12 2 12 10 -1 11 -17 10 -18
14 45 1 23 12 39 46 66 39 32 47 35 57 22 10 -13 13 -12 18 10 4 14 4 30 1 36
-4 5 3 13 15 16 16 5 19 12 14 28 -18 63 -16 107 6 107 6 0 7 -4 4 -10 -3 -5
-1 -10 5 -10 8 0 10 9 6 26 -9 35 4 100 16 82 8 -10 9 -10 6 2 -3 8 7 24 21
37 15 14 20 22 11 21 -14 -3 -27 -14 -69 -63 -9 -12 -15 -27 -13 -34 3 -8 0
-11 -6 -7 -6 3 -37 -24 -69 -61 -106 -123 -286 -304 -408 -410 -66 -57 -138
-120 -160 -140 -22 -19 -41 -35 -43 -34 -8 4 -80 -58 -74 -64 4 -3 2 -5 -4 -3
-6 2 -39 -17 -74 -42 -35 -25 -72 -48 -81 -52 -10 -4 -39 -22 -66 -41 -26 -18
-100 -62 -163 -97 -63 -34 -126 -70 -140 -79 -14 -9 -44 -25 -67 -35 -23 -10
-41 -22 -39 -25 2 -3 -6 -7 -18 -7 -33 -2 -148 -59 -139 -69 4 -4 2 -5 -5 -1
-7 4 -63 -13 -125 -37 -127 -51 -255 -97 -339 -123 l-57 -17 -3 -105 -3 -105
210 6 c367 12 874 63 997 102 26 8 93 24 150 35 168 33 249 53 446 109 325 94
718 282 992 474 492 345 885 822 1201 1457 113 227 186 389 229 505 10 28 35
93 55 145 20 52 63 172 96 265 33 94 71 196 84 228 l25 57 -68 31 c-118 54
-214 90 -231 86 -11 -3 -9 -5 5 -6 12 0 28 -9 35 -18 11 -13 11 -15 1 -9 -15
9 -65 -31 -56 -45 3 -5 -14 -29 -37 -53 -24 -25 -55 -65 -69 -89 -31 -55 -59
-95 -82 -116 -10 -8 -18 -23 -18 -33 0 -10 -4 -18 -9 -18 -6 0 -20 -18 -32
-40 -13 -22 -26 -40 -31 -40 -4 0 -8 -7 -8 -15 0 -8 -6 -15 -13 -15 -7 0 -25
-26 -41 -57 -15 -32 -37 -64 -48 -71 -11 -8 -17 -21 -14 -29 3 -8 -5 -25 -19
-39 -14 -14 -25 -28 -25 -32 0 -4 -16 -27 -35 -50 -19 -24 -37 -52 -40 -62 -3
-10 -12 -21 -20 -24 -8 -3 -21 -21 -29 -41 -8 -19 -20 -35 -25 -35 -6 0 -11
-7 -11 -15 0 -8 -18 -33 -40 -57 -22 -24 -40 -48 -40 -54 0 -6 -11 -21 -25
-34 -14 -13 -25 -29 -25 -36 0 -7 -13 -23 -28 -36 -16 -13 -39 -45 -51 -71
-12 -26 -28 -50 -37 -54 -9 -3 -20 -17 -25 -30 -5 -14 -17 -27 -27 -30 -9 -3
-33 -27 -52 -53 -19 -27 -45 -53 -57 -59 -12 -5 -24 -23 -28 -40 -4 -17 -13
-31 -20 -31 -14 0 -25 -22 -25 -51 0 -11 -22 -43 -50 -71 -27 -28 -50 -57 -50
-65 0 -8 -9 -17 -19 -20 -11 -3 -22 -16 -25 -29 -4 -15 -14 -24 -26 -24 -12 0
-24 -10 -30 -24 -11 -31 -30 -42 -41 -25 -5 9 -6 1 -3 -21 2 -19 0 -42 -5 -49
-8 -12 -13 -11 -31 10 -20 23 -21 23 -10 2 9 -19 8 -23 -6 -23 -11 0 -15 -6
-11 -20 3 -13 0 -20 -9 -20 -7 0 -16 -11 -20 -25 -8 -31 -24 -33 -25 -2 -1 17
-2 18 -6 4 -3 -10 0 -24 6 -31 8 -10 5 -16 -14 -24 -22 -10 -30 -28 -26 -54 0
-5 -2 -7 -7 -7 -23 4 -41 -3 -46 -17 -4 -12 -2 -15 9 -10 8 3 15 1 15 -4 0 -5
-9 -12 -20 -15 -11 -3 -20 -11 -20 -17 0 -6 -3 -8 -7 -5 -3 4 -12 2 -20 -4
-19 -17 -16 4 5 27 10 10 40 55 67 99 63 104 81 126 90 117 5 -4 5 -2 1 5 -3
6 31 76 77 155 46 79 110 193 142 253 32 61 67 126 78 145 73 130 298 599 379
790 22 52 51 120 65 150 14 30 61 145 104 255 44 110 91 227 105 260 21 51 22
61 10 70 -21 16 -356 79 -551 105 -208 27 -307 36 -474 45 -52 3 -97 7 -100
10 -9 10 34 34 74 42 56 10 493 6 715 -7 693 -42 1259 -182 1610 -399 45 -28
85 -51 90 -51 4 0 29 40 54 89 49 98 68 133 76 141 3 3 13 22 22 43 12 25 24
37 38 37 23 0 63 -36 55 -50 -3 -5 15 -23 39 -40 24 -18 46 -40 49 -50 2 -10
25 -25 53 -35 27 -10 56 -24 65 -32 8 -7 21 -13 27 -13 7 0 12 -4 12 -9 0 -5
13 -14 29 -19 24 -9 29 -15 26 -38 -1 -16 1 -38 6 -49 8 -17 9 -15 4 7 -3 15
0 30 7 34 7 4 8 3 4 -4 -4 -7 -2 -12 4 -12 8 0 10 9 6 24 -4 15 0 28 9 36 8 7
15 9 15 4 0 -12 14 15 133 251 91 183 167 342 167 351 0 5 -625 1 -1165 -6z
m192 -206 c-3 -3 -12 -4 -19 -1 -8 3 -5 6 6 6 11 1 17 -2 13 -5z m-1870 -110
c-3 -3 -12 -4 -19 -1 -8 3 -5 6 6 6 11 1 17 -2 13 -5z m72 -53 c-3 -7 -13 3
-23 21 l-19 33 23 -21 c12 -12 21 -27 19 -33z m68 43 c-3 -3 -12 -4 -19 -1 -8
3 -5 6 6 6 11 1 17 -2 13 -5z m113 -50 c0 -21 -3 -24 -25 -18 -22 5 -24 4 -19
-22 3 -16 2 -26 -1 -23 -11 12 -15 59 -5 59 5 0 11 8 11 18 1 16 2 16 6 0 2
-10 9 -18 14 -18 6 0 7 9 4 21 -5 15 -4 19 4 15 6 -4 11 -18 11 -32z m-141
-49 c0 -5 -4 -3 -9 5 -5 8 -9 22 -9 30 0 16 17 -16 18 -35z m124 0 c-3 -9 -8
-14 -10 -11 -3 3 -2 9 2 15 9 16 15 13 8 -4z m-110 -240 c-7 -21 -12 -19 -10
4 0 11 5 18 9 15 4 -3 5 -11 1 -19z m-948 -65 c-3 -5 -11 -10 -16 -10 -6 0 -7
5 -4 10 3 6 11 10 16 10 6 0 7 -4 4 -10z m50 0 c3 -6 -1 -7 -9 -4 -18 7 -21
14 -7 14 6 0 13 -4 16 -10z m875 -36 c-10 -21 -19 -35 -20 -31 0 4 -9 3 -20
-3 -16 -9 -20 -8 -20 5 0 8 3 14 8 14 19 -3 29 3 46 32 25 43 30 31 6 -17z
m-1180 -1800 c0 -8 -19 -13 -24 -6 -3 5 1 9 9 9 8 0 15 -2 15 -3z m-10 -59 c0
-5 -5 -3 -10 5 -5 8 -10 20 -10 25 0 6 5 3 10 -5 5 -8 10 -19 10 -25z m541
-151 c-11 -15 -21 -24 -21 -20 0 10 34 55 39 51 2 -2 -6 -16 -18 -31z m-24 1
c-7 -14 -15 -25 -19 -25 -4 0 -17 -18 -29 -40 -13 -22 -26 -40 -31 -40 -4 0
-7 -3 -7 -7 3 -21 -2 -33 -16 -33 -8 0 -15 -4 -15 -10 0 -5 -4 -10 -10 -10 -5
0 13 29 39 64 27 35 57 78 67 95 22 37 37 41 21 6z m-137 -179 c0 -2 -8 -10
-17 -17 -16 -13 -17 -12 -4 4 13 16 21 21 21 13z m-50 -66 c-31 -43 -46 -48
-18 -6 13 20 27 36 31 36 5 0 -1 -13 -13 -30z m-40 -53 c0 -2 -14 -16 -32 -33
l-32 -29 25 32 c20 27 39 41 39 30z m-2177 -874 c-7 -2 -19 -2 -25 0 -7 3 -2
5 12 5 14 0 19 -2 13 -5z"/>
<path d="M9196 6785 c-9 -26 -7 -32 5 -12 6 10 9 21 6 23 -2 3 -7 -2 -11 -11z"/>
<path d="M9100 6579 c-7 -11 -10 -23 -7 -25 2 -2 9 7 15 21 14 30 7 33 -8 4z"/>
<path d="M9062 6500 c-18 -29 -15 -38 4 -12 9 13 14 25 12 27 -2 2 -9 -5 -16
-15z"/>
<path d="M9036 6445 c-9 -26 -7 -32 5 -12 6 10 9 21 6 23 -2 3 -7 -2 -11 -11z"/>
<path d="M8328 6433 c6 -2 18 -2 25 0 6 3 1 5 -13 5 -14 0 -19 -2 -12 -5z"/>
<path d="M9056 6425 c-9 -26 -7 -32 5 -12 6 10 9 21 6 23 -2 3 -7 -2 -11 -11z"/>
<path d="M8966 6293 c-6 -14 -5 -15 5 -6 7 7 10 15 7 18 -3 3 -9 -2 -12 -12z"/>
<path d="M7695 6208 c11 -6 22 -14 25 -17 3 -3 10 -7 15 -7 6 -1 21 -4 35 -8
14 -3 3 5 -25 18 -51 25 -87 35 -50 14z"/>
<path d="M5946 6077 c-19 -17 -22 -24 -12 -24 9 0 16 4 16 9 0 4 6 8 14 8 8 0
16 7 20 15 8 22 -7 18 -38 -8z"/>
<path d="M5848 6029 c-21 -11 -38 -22 -38 -24 0 -5 79 32 89 41 12 11 -18 1
-51 -17z"/>
<path d="M5275 5980 c-13 -6 -15 -9 -5 -9 8 0 22 4 30 9 18 12 2 12 -25 0z"/>
<path d="M5740 5980 c-9 -6 -10 -10 -3 -10 6 0 15 5 18 10 8 12 4 12 -15 0z"/>
<path d="M5068 5933 c6 -2 18 -2 25 0 6 3 1 5 -13 5 -14 0 -19 -2 -12 -5z"/>
<path d="M4825 5912 c-11 -1 -87 -7 -170 -11 l-150 -9 202 1 c131 1 206 6 213
13 11 11 -41 14 -95 6z"/>
<path d="M4968 5913 c6 -2 18 -2 25 0 6 3 1 5 -13 5 -14 0 -19 -2 -12 -5z"/>
<path d="M5517 5869 c7 -7 15 -10 18 -7 3 3 -2 9 -12 12 -14 6 -15 5 -6 -5z"/>
<path d="M5885 5869 c-4 -6 -5 -12 -2 -15 2 -3 7 2 10 11 7 17 1 20 -8 4z"/>
<path d="M6153 5839 c14 -8 16 -19 13 -47 -3 -21 -2 -28 2 -17 4 11 13 20 21
20 8 0 17 7 19 15 5 13 3 13 -11 1 -15 -12 -17 -11 -18 5 -1 11 -1 22 0 27 0
4 -9 7 -21 7 -21 -1 -21 -2 -5 -11z"/>
<path d="M6037 5788 c4 -19 3 -20 -7 -8 -10 12 -11 11 -7 -8 3 -12 -1 -25 -8
-30 -7 -4 -32 -47 -55 -97 -23 -49 -47 -98 -52 -109 -6 -12 -7 -16 0 -12 5 3
17 22 27 42 13 28 19 33 26 23 8 -12 10 -12 18 0 7 11 9 11 14 0 3 -9 7 -3 12
13 5 19 2 32 -9 43 -18 18 -22 40 -6 30 6 -4 10 -3 9 2 -4 21 3 32 21 38 12 4
20 15 20 29 0 12 5 27 11 33 6 6 8 16 5 22 -12 19 -24 12 -19 -11z m-37 -176
c0 -4 -9 -8 -20 -9 -22 -2 -27 13 -7 20 14 5 27 -1 27 -11z"/>
<path d="M5836 5755 c-9 -26 -7 -32 5 -12 6 10 9 21 6 23 -2 3 -7 -2 -11 -11z"/>
<path d="M6165 5729 c-4 -6 -5 -12 -2 -15 2 -3 7 2 10 11 7 17 1 20 -8 4z"/>
<path d="M6080 5720 c0 -5 5 -10 11 -10 5 0 7 5 4 10 -3 6 -8 10 -11 10 -2 0
-4 -4 -4 -10z"/>
<path d="M5891 5495 c1 -19 18 -51 18 -35 0 8 -4 22 -9 30 -5 8 -9 11 -9 5z"/>
<path d="M5856 5423 c-6 -14 -5 -15 5 -6 7 7 10 15 7 18 -3 3 -9 -2 -12 -12z"/>
<path d="M9385 4922 c-138 -152 -515 -520 -610 -596 -16 -13 -56 -45 -88 -70
-57 -46 -346 -264 -423 -319 -47 -34 -234 -157 -239 -157 -2 0 -45 -26 -96
-59 -52 -32 -132 -78 -179 -103 -47 -24 -105 -56 -130 -70 -100 -56 -238 -127
-298 -152 -35 -15 -95 -42 -135 -60 -40 -19 -117 -53 -172 -76 -55 -23 -104
-45 -110 -48 -16 -10 -56 -11 -50 -1 10 16 -4 10 -113 -45 -59 -29 -161 -75
-227 -100 -159 -62 -168 -66 -130 -60 154 23 452 90 620 139 856 252 1572 585
2405 1120 65 41 393 271 488 342 l33 25 -65 46 c-36 26 -107 79 -158 118 -96
73 -236 176 -253 186 -5 3 -37 -24 -70 -60z m-2548 -1738 c-3 -3 -12 -4 -19
-1 -8 3 -5 6 6 6 11 1 17 -2 13 -5z"/>
<path d="M8669 4673 c-13 -16 -12 -17 4 -4 16 13 21 21 13 21 -2 0 -10 -8 -17
-17z"/>
<path d="M10127 4669 c7 -7 15 -10 18 -7 3 3 -2 9 -12 12 -14 6 -15 5 -6 -5z"/>
<path d="M8602 4597 c-24 -25 -28 -37 -12 -37 6 0 10 5 10 12 0 6 7 20 17 30
24 26 10 22 -15 -5z"/>
<path d="M8995 4600 c-3 -5 -1 -10 4 -10 6 0 11 5 11 10 0 6 -2 10 -4 10 -3 0
-8 -4 -11 -10z"/>
<path d="M5346 4573 c-6 -14 -5 -15 5 -6 7 7 10 15 7 18 -3 3 -9 -2 -12 -12z"/>
<path d="M8900 4549 c0 -5 5 -7 10 -4 6 3 10 8 10 11 0 2 -4 4 -10 4 -5 0 -10
-5 -10 -11z"/>
<path d="M8931 4534 c-13 -13 -21 -24 -17 -24 12 0 56 32 56 41 0 14 -13 9
-39 -17z"/>
<path d="M5311 4529 c-7 -12 -10 -23 -8 -26 3 -3 11 5 17 17 15 28 8 35 -9 9z"/>
<path d="M8534 4518 l-19 -23 23 19 c12 11 22 21 22 23 0 8 -8 2 -26 -19z"/>
<path d="M10025 4530 c-3 -6 1 -7 9 -4 18 7 21 14 7 14 -6 0 -13 -4 -16 -10z"/>
<path d="M8560 4490 c0 -5 5 -10 10 -10 6 0 10 5 10 10 0 6 -4 10 -10 10 -5 0
-10 -4 -10 -10z"/>
<path d="M8497 4470 c-3 -11 -1 -20 4 -20 5 0 9 9 9 20 0 11 -2 20 -4 20 -2 0
-6 -9 -9 -20z"/>
<path d="M8845 4460 c-4 -12 -5 -24 -2 -27 3 -2 8 5 12 17 4 12 5 24 2 27 -3
2 -8 -5 -12 -17z"/>
<path d="M5257 4453 c-4 -3 -7 -11 -7 -17 0 -6 5 -5 12 2 6 6 9 14 7 17 -3 3
-9 2 -12 -2z"/>
<path d="M8466 4443 c-6 -14 -5 -15 5 -6 7 7 10 15 7 18 -3 3 -9 -2 -12 -12z"/>
<path d="M8805 4420 c-3 -5 -1 -10 4 -10 6 0 11 5 11 10 0 6 -2 10 -4 10 -3 0
-8 -4 -11 -10z"/>
<path d="M5902 4370 c0 -14 2 -19 5 -12 2 6 2 18 0 25 -3 6 -5 1 -5 -13z"/>
<path d="M9805 4370 c-3 -6 1 -7 9 -4 18 7 21 14 7 14 -6 0 -13 -4 -16 -10z"/>
<path d="M5228 4353 c7 -3 16 -2 19 1 4 3 -2 6 -13 5 -11 0 -14 -3 -6 -6z"/>
<path d="M5191 4294 c0 -11 3 -14 6 -6 3 7 2 16 -1 19 -3 4 -6 -2 -5 -13z"/>
<path d="M6866 4253 c-6 -14 -5 -15 5 -6 7 7 10 15 7 18 -3 3 -9 -2 -12 -12z"/>
<path d="M9649 4253 c-13 -16 -12 -17 4 -4 9 7 17 15 17 17 0 8 -8 3 -21 -13z"/>
<path d="M5743 4193 c-3 -10 -8 -22 -11 -27 -3 -5 0 -6 5 -3 11 7 25 47 17 47
-3 0 -7 -8 -11 -17z"/>
<path d="M6475 3810 c-3 -6 1 -7 9 -4 18 7 21 14 7 14 -6 0 -13 -4 -16 -10z"/>
<path d="M6415 3740 c-3 -5 -2 -10 4 -10 5 0 13 5 16 10 3 6 2 10 -4 10 -5 0
-13 -4 -16 -10z"/>
<path d="M6340 3670 c-6 -11 -8 -20 -6 -20 3 0 10 9 16 20 6 11 8 20 6 20 -3
0 -10 -9 -16 -20z"/>
<path d="M7328 3492 c-16 -10 -28 -21 -28 -25 0 -5 14 1 30 13 17 12 30 23 30
26 0 5 0 5 -32 -14z"/>
<path d="M7260 3450 c-9 -6 -10 -10 -3 -10 6 0 15 5 18 10 8 12 4 12 -15 0z"/>
<path d="M6029 3413 c-13 -16 -12 -17 4 -4 16 13 21 21 13 21 -2 0 -10 -8 -17
-17z"/>
<path d="M5990 3385 c-10 -12 -10 -15 2 -15 8 0 15 7 15 15 0 8 -1 15 -2 15
-2 0 -8 -7 -15 -15z"/>
<path d="M7145 3380 c-3 -6 1 -7 9 -4 18 7 21 14 7 14 -6 0 -13 -4 -16 -10z"/>
<path d="M5922 3338 c-24 -17 -40 -33 -37 -36 3 -4 9 -2 13 4 14 22 48 34 62
21 12 -10 12 -9 2 4 -9 12 -9 18 0 27 19 19 6 13 -40 -20z"/>
<path d="M7900 3306 c0 -2 7 -7 16 -10 8 -3 12 -2 9 4 -6 10 -25 14 -25 6z"/>
<path d="M5748 3232 c-54 -31 -98 -60 -98 -64 0 -9 36 10 57 29 8 7 21 9 30 6
9 -4 14 -2 10 3 -3 6 19 25 49 43 30 17 54 34 54 37 0 6 5 8 -102 -54z"/>
<path d="M6885 3240 c-3 -5 -2 -10 4 -10 5 0 13 5 16 10 3 6 2 10 -4 10 -5 0
-13 -4 -16 -10z"/>
<path d="M5596 3147 l-30 -13 39 0 c21 0 33 2 26 4 -6 2 -9 8 -5 13 6 11 6 11
-30 -4z"/>
<path d="M5470 3080 c-9 -6 -10 -10 -3 -10 6 0 15 5 18 10 8 12 4 12 -15 0z"/>
<path d="M5400 3050 c-8 -5 -10 -10 -5 -10 6 0 17 5 25 10 8 5 11 10 5 10 -5
0 -17 -5 -25 -10z"/>
<path d="M6015 3030 c3 -5 8 -10 11 -10 2 0 4 5 4 10 0 6 -5 10 -11 10 -5 0
-7 -4 -4 -10z"/>
<path d="M6958 2983 c7 -3 16 -2 19 1 4 3 -2 6 -13 5 -11 0 -14 -3 -6 -6z"/>
<path d="M5978 2973 c7 -3 16 -2 19 1 4 3 -2 6 -13 5 -11 0 -14 -3 -6 -6z"/>
<path d="M6004 2948 c-5 -7 -3 -8 5 -4 7 5 22 0 34 -11 l22 -18 -19 23 c-21
25 -32 27 -42 10z"/>
<path d="M6783 2933 c9 -2 23 -2 30 0 6 3 -1 5 -18 5 -16 0 -22 -2 -12 -5z"/>
<path d="M6728 2923 c6 -2 18 -2 25 0 6 3 1 5 -13 5 -14 0 -19 -2 -12 -5z"/>
<path d="M6298 2843 c7 -3 16 -2 19 1 4 3 -2 6 -13 5 -11 0 -14 -3 -6 -6z"/>
</g>
</svg>
